<svg xmlns="http://www.w3.org/2000/svg" width="796" height="855" viewBox="0 0 3.619583 3.885329">
<rect x="0" y="0" width="3.619583" height="3.885329" fill="white"/>
<polyline points="2.596007,1.983136 2.673908,2.061037 2.673908,2.681724 2.246302,3.109329 1.667019,3.109329 1.380763,2.823073 1.380763,1.380763 1.252,1.252" fill="none" stroke="#4d7fc4" stroke-width="0.15" stroke-linecap="round" stroke-linejoin="round"/>
<polyline points="0.972541,2.654554 0.972541,2.840529 1.542341,3.410329 2.37098,3.410329 3.144583,2.636727 3.144583,1.929257 2.705893,1.490567 2.681906,1.490567" fill="none" stroke="#4d7fc4" stroke-width="0.15" stroke-linecap="round" stroke-linejoin="round"/>
<polyline points="1.751763,1.236513 1.855763,1.340513 1.855763,2.734329" fill="none" stroke="#4d7fc4" stroke-width="0.15" stroke-linecap="round" stroke-linejoin="round"/>
<polyline points="1.751763,1.236513 1.751763,1.149308 1.428455,0.826 1.075545,0.826 0.826,1.075545 0.826,1.524872 0.956375,1.655247" fill="none" stroke="#4d7fc4" stroke-width="0.15" stroke-linecap="round" stroke-linejoin="round"/>
<polyline points="2.297908,2.384558 2.170007,2.256657 2.170007,1.317409 2.251765,1.235651" fill="none" stroke="#4d7fc4" stroke-width="0.15" stroke-linecap="round" stroke-linejoin="round"/>
<polyline points="2.251765,1.235651 2.251765,0.816923 1.909842,0.475 0.930157,0.475 0.475,0.930156 0.475,1.776327 0.853846,2.155173 0.947601,2.155173" fill="none" stroke="#4d7fc4" stroke-width="0.15" stroke-linecap="round" stroke-linejoin="round"/>
<circle cx="2.596007" cy="1.983136" r="0.15" fill="rgba(231, 76, 60, 1)" stroke="#e74c3c" stroke-width="0.075"/>
<circle cx="2.596007" cy="1.983136" r="0.06" fill="#ffffff"/>
<circle cx="1.252" cy="1.252" r="0.15" fill="rgba(231, 76, 60, 1)" stroke="#e74c3c" stroke-width="0.075"/>
<circle cx="1.252" cy="1.252" r="0.06" fill="#ffffff"/>
<circle cx="0.972541" cy="2.654554" r="0.15" fill="rgba(46, 204, 113, 1)" stroke="#2ecc71" stroke-width="0.075"/>
<circle cx="0.972541" cy="2.654554" r="0.06" fill="#ffffff"/>
<circle cx="2.681906" cy="1.490567" r="0.15" fill="rgba(46, 204, 113, 1)" stroke="#2ecc71" stroke-width="0.075"/>
<circle cx="2.681906" cy="1.490567" r="0.06" fill="#ffffff"/>
<circle cx="1.751763" cy="1.236513" r="0.15" fill="rgba(241, 196, 15, 1)" stroke="#f1c40f" stroke-width="0.075"/>
<circle cx="1.751763" cy="1.236513" r="0.06" fill="#ffffff"/>
<circle cx="0.956375" cy="1.655247" r="0.15" fill="rgba(241, 196, 15, 1)" stroke="#f1c40f" stroke-width="0.075"/>
<circle cx="0.956375" cy="1.655247" r="0.06" fill="#ffffff"/>
<circle cx="1.855763" cy="2.734329" r="0.15" fill="rgba(241, 196, 15, 1)" stroke="#f1c40f" stroke-width="0.075"/>
<circle cx="1.855763" cy="2.734329" r="0.06" fill="#ffffff"/>
<circle cx="2.297908" cy="2.384558" r="0.15" fill="rgba(155, 89, 182, 1)" stroke="#9b59b6" stroke-width="0.075"/>
<circle cx="2.297908" cy="2.384558" r="0.06" fill="#ffffff"/>
<circle cx="2.251765" cy="1.235651" r="0.15" fill="rgba(155, 89, 182, 1)" stroke="#9b59b6" stroke-width="0.075"/>
<circle cx="2.251765" cy="1.235651" r="0.06" fill="#ffffff"/>
<circle cx="0.947601" cy="2.155173" r="0.15" fill="rgba(155, 89, 182, 1)" stroke="#9b59b6" stroke-width="0.075"/>
<circle cx="0.947601" cy="2.155173" r="0.06" fill="#ffffff"/>
</svg>
