<svg xmlns="http://www.w3.org/2000/svg" width="845" height="939" viewBox="0 0 3.839401 4.269367">
<rect x="0" y="0" width="3.839401" height="4.269367" fill="white"/>
<polyline points="2.525569,2.793347 2.525569,1.871088 1.959805,1.305324 1.959805,1.227" fill="none" stroke="#4d7fc4" stroke-width="0.15" stroke-linecap="round" stroke-linejoin="round"/>
<polyline points="3.214401,1.872169 3.214401,2.671615 2.091649,3.794367 1.559568,3.794367 1.225789,3.460588 1.225789,3.404494" fill="none" stroke="#4d7fc4" stroke-width="0.15" stroke-linecap="round" stroke-linejoin="round"/>
<polyline points="1.224853,2.404492 1.159898,2.404492 0.826,2.070594 0.826,1.721314 1.721314,0.826 2.125905,0.826 2.459708,1.159803 2.459708,1.217042" fill="none" stroke="#4d7fc4" stroke-width="0.15" stroke-linecap="round" stroke-linejoin="round"/>
<polyline points="1.725668,3.393367 1.725668,2.338207 1.291955,1.904494 1.227,1.904494" fill="none" stroke="#4d7fc4" stroke-width="0.15" stroke-linecap="round" stroke-linejoin="round"/>
<polyline points="1.571912,1.542502 2.026668,1.997258 2.026668,2.995607 2.129223,3.098162" fill="none" stroke="#4d7fc4" stroke-width="0.15" stroke-linecap="round" stroke-linejoin="round"/>
<polyline points="1.226538,2.904492 1.122398,2.904492 0.475,2.257094 0.475,1.575926 1.575925,0.475 2.320121,0.475 2.900785,1.055664 2.900785,1.479109 2.848675,1.531219" fill="none" stroke="#4d7fc4" stroke-width="0.15" stroke-linecap="round" stroke-linejoin="round"/>
<circle cx="2.525569" cy="2.793347" r="0.15" fill="rgba(231, 76, 60, 1)" stroke="#e74c3c" stroke-width="0.075"/>
<circle cx="2.525569" cy="2.793347" r="0.06" fill="#ffffff"/>
<circle cx="1.959805" cy="1.227" r="0.15" fill="rgba(231, 76, 60, 1)" stroke="#e74c3c" stroke-width="0.075"/>
<circle cx="1.959805" cy="1.227" r="0.06" fill="#ffffff"/>
<circle cx="3.214401" cy="1.872169" r="0.15" fill="rgba(46, 204, 113, 1)" stroke="#2ecc71" stroke-width="0.075"/>
<circle cx="3.214401" cy="1.872169" r="0.06" fill="#ffffff"/>
<circle cx="1.225789" cy="3.404494" r="0.15" fill="rgba(46, 204, 113, 1)" stroke="#2ecc71" stroke-width="0.075"/>
<circle cx="1.225789" cy="3.404494" r="0.06" fill="#ffffff"/>
<circle cx="1.224853" cy="2.404492" r="0.15" fill="rgba(241, 196, 15, 1)" stroke="#f1c40f" stroke-width="0.075"/>
<circle cx="1.224853" cy="2.404492" r="0.06" fill="#ffffff"/>
<circle cx="2.459708" cy="1.217042" r="0.15" fill="rgba(241, 196, 15, 1)" stroke="#f1c40f" stroke-width="0.075"/>
<circle cx="2.459708" cy="1.217042" r="0.06" fill="#ffffff"/>
<circle cx="1.725668" cy="3.393367" r="0.15" fill="rgba(155, 89, 182, 1)" stroke="#9b59b6" stroke-width="0.075"/>
<circle cx="1.725668" cy="3.393367" r="0.06" fill="#ffffff"/>
<circle cx="1.227" cy="1.904494" r="0.15" fill="rgba(155, 89, 182, 1)" stroke="#9b59b6" stroke-width="0.075"/>
<circle cx="1.227" cy="1.904494" r="0.06" fill="#ffffff"/>
<circle cx="1.571912" cy="1.542502" r="0.15" fill="rgba(26, 188, 156, 1)" stroke="#1abc9c" stroke-width="0.075"/>
<circle cx="1.571912" cy="1.542502" r="0.06" fill="#ffffff"/>
<circle cx="2.129223" cy="3.098162" r="0.15" fill="rgba(26, 188, 156, 1)" stroke="#1abc9c" stroke-width="0.075"/>
<circle cx="2.129223" cy="3.098162" r="0.06" fill="#ffffff"/>
<circle cx="1.226538" cy="2.904492" r="0.15" fill="rgba(230, 126, 34, 1)" stroke="#e67e22" stroke-width="0.075"/>
<circle cx="1.226538" cy="2.904492" r="0.06" fill="#ffffff"/>
<circle cx="2.848675" cy="1.531219" r="0.15" fill="rgba(230, 126, 34, 1)" stroke="#e67e22" stroke-width="0.075"/>
<circle cx="2.848675" cy="1.531219" r="0.06" fill="#ffffff"/>
</svg>
