<svg xmlns="http://www.w3.org/2000/svg" width="859" height="947" viewBox="0 0 3.903105 4.306768">
<rect x="0" y="0" width="3.903105" height="4.306768" fill="white"/>
<polyline points="2.726105,2.162385 2.810795,2.247075 2.810795,2.71572 2.296747,3.229768 1.828871,3.229768 1.593971,2.994868 1.593971,2.968687 1.300855,2.675571 1.300855,1.300855 1.177,1.177" fill="none" stroke="#4d7fc4" stroke-width="0.15" stroke-linecap="round" stroke-linejoin="round"/>
<polyline points="2.962417,1.72175 3.127105,1.886438 3.127105,2.825088 2.421425,3.530768 1.588952,3.530768 1.09264,3.034456" fill="none" stroke="#4d7fc4" stroke-width="0.15" stroke-linecap="round" stroke-linejoin="round"/>
<polyline points="0.879704,2.582061 0.69164,2.770125 0.69164,3.200556 1.322852,3.831768 2.546103,3.831768 3.428105,2.949766 3.428105,1.620338 3.128517,1.32075 2.659422,1.32075 2.643575,1.336597" fill="none" stroke="#4d7fc4" stroke-width="0.15" stroke-linecap="round" stroke-linejoin="round"/>
<polyline points="1.673875,1.121161 1.673875,1.106775 1.3431,0.776 1.0109,0.776 0.776,1.0109 0.776,1.473954 0.884736,1.58269" fill="none" stroke="#4d7fc4" stroke-width="0.15" stroke-linecap="round" stroke-linejoin="round"/>
<polyline points="1.673875,1.121161 1.673875,2.507672 1.994971,2.828768" fill="none" stroke="#4d7fc4" stroke-width="0.15" stroke-linecap="round" stroke-linejoin="round"/>
<polyline points="2.409795,2.54962 2.171221,2.311046 2.171221,1.172632" fill="none" stroke="#4d7fc4" stroke-width="0.15" stroke-linecap="round" stroke-linejoin="round"/>
<polyline points="2.171221,1.172632 2.171221,1.051407 1.594814,0.475 0.886222,0.475 0.475,0.886222 0.475,1.740054 0.81741,2.082464 0.899855,2.082464" fill="none" stroke="#4d7fc4" stroke-width="0.15" stroke-linecap="round" stroke-linejoin="round"/>
<circle cx="2.726105" cy="2.162385" r="0.15" fill="rgba(231, 76, 60, 1)" stroke="#e74c3c" stroke-width="0.075"/>
<circle cx="2.726105" cy="2.162385" r="0.06" fill="#ffffff"/>
<circle cx="1.177" cy="1.177" r="0.15" fill="rgba(231, 76, 60, 1)" stroke="#e74c3c" stroke-width="0.075"/>
<circle cx="1.177" cy="1.177" r="0.06" fill="#ffffff"/>
<circle cx="2.962417" cy="1.72175" r="0.15" fill="rgba(46, 204, 113, 1)" stroke="#2ecc71" stroke-width="0.075"/>
<circle cx="2.962417" cy="1.72175" r="0.06" fill="#ffffff"/>
<circle cx="1.09264" cy="3.034456" r="0.15" fill="rgba(46, 204, 113, 1)" stroke="#2ecc71" stroke-width="0.075"/>
<circle cx="1.09264" cy="3.034456" r="0.06" fill="#ffffff"/>
<circle cx="0.879704" cy="2.582061" r="0.15" fill="rgba(241, 196, 15, 1)" stroke="#f1c40f" stroke-width="0.075"/>
<circle cx="0.879704" cy="2.582061" r="0.06" fill="#ffffff"/>
<circle cx="2.643575" cy="1.336597" r="0.15" fill="rgba(241, 196, 15, 1)" stroke="#f1c40f" stroke-width="0.075"/>
<circle cx="2.643575" cy="1.336597" r="0.06" fill="#ffffff"/>
<circle cx="1.673875" cy="1.121161" r="0.15" fill="rgba(155, 89, 182, 1)" stroke="#9b59b6" stroke-width="0.075"/>
<circle cx="1.673875" cy="1.121161" r="0.06" fill="#ffffff"/>
<circle cx="0.884736" cy="1.58269" r="0.15" fill="rgba(155, 89, 182, 1)" stroke="#9b59b6" stroke-width="0.075"/>
<circle cx="0.884736" cy="1.58269" r="0.06" fill="#ffffff"/>
<circle cx="1.994971" cy="2.828768" r="0.15" fill="rgba(155, 89, 182, 1)" stroke="#9b59b6" stroke-width="0.075"/>
<circle cx="1.994971" cy="2.828768" r="0.06" fill="#ffffff"/>
<circle cx="2.409795" cy="2.54962" r="0.15" fill="rgba(26, 188, 156, 1)" stroke="#1abc9c" stroke-width="0.075"/>
<circle cx="2.409795" cy="2.54962" r="0.06" fill="#ffffff"/>
<circle cx="2.171221" cy="1.172632" r="0.15" fill="rgba(26, 188, 156, 1)" stroke="#1abc9c" stroke-width="0.075"/>
<circle cx="2.171221" cy="1.172632" r="0.06" fill="#ffffff"/>
<circle cx="0.899855" cy="2.082464" r="0.15" fill="rgba(26, 188, 156, 1)" stroke="#1abc9c" stroke-width="0.075"/>
<circle cx="0.899855" cy="2.082464" r="0.06" fill="#ffffff"/>
</svg>
